<svg width="16" height="16" viewBox="0 0 16 16" fill="none" xmlns="http://www.w3.org/2000/svg">
<g clip-path="url(#clip0_19_8)">
<path fill-rule="evenodd" clip-rule="evenodd" d="M8.42105 5.89474C8.42105 6.82493 9.17507 7.57895 10.1053 7.57895C11.0355 7.57895 11.7895 6.82493 11.7895 5.89474V1.68421C11.7895 0.754046 11.0355 0 10.1053 0C9.17507 0 8.42105 0.754046 8.42105 1.68421V5.89474ZM1.68421 4.21053C0.754046 4.21053 0 4.96457 0 5.89474C0 6.82493 0.754046 7.57895 1.68421 7.57895H5.89474C6.82493 7.57895 7.57895 6.82493 7.57895 5.89474C7.57895 4.96457 6.82493 4.21053 5.89474 4.21053H1.68421ZM10.1053 8.42105C9.17507 8.42105 8.42105 9.17507 8.42105 10.1053C8.42105 11.0355 9.17507 11.7895 10.1053 11.7895H14.3158C15.246 11.7895 16 11.0355 16 10.1053C16 9.17507 15.246 8.42105 14.3158 8.42105H10.1053ZM5.89474 16C4.96457 16 4.21053 15.246 4.21053 14.3158V10.1053C4.21053 9.17507 4.96457 8.42105 5.89474 8.42105C6.82493 8.42105 7.57895 9.17507 7.57895 10.1053V14.3158C7.57895 15.246 6.82493 16 5.89474 16ZM4.21053 1.68421C4.21053 0.754046 4.96457 0 5.89474 0C6.82493 0 7.57895 0.754046 7.57895 1.68421V3.36842H5.89474C4.96457 3.36842 4.21053 2.61437 4.21053 1.68421ZM0 10.1053C0 11.0355 0.754046 11.7895 1.68421 11.7895C2.61437 11.7895 3.36842 11.0355 3.36842 10.1053V8.42105H1.68421C0.754046 8.42105 0 9.17507 0 10.1053ZM11.7895 14.3158C11.7895 15.246 11.0355 16 10.1053 16C9.17507 16 8.42105 15.246 8.42105 14.3158V12.6316H10.1053C11.0355 12.6316 11.7895 13.3856 11.7895 14.3158ZM16 5.89474C16 4.96457 15.246 4.21053 14.3158 4.21053C13.3856 4.21053 12.6316 4.96457 12.6316 5.89474V7.57895H14.3158C15.246 7.57895 16 6.82493 16 5.89474Z" fill="#A0A0A0"/>
</g>
<defs>
<clipPath id="clip0_19_8">
<rect width="16" height="16" fill="white"/>
</clipPath>
</defs>
</svg>
