<svg width="16" height="16" viewbox="0 0 16 16" fill="none" xmlns="http://www.w3.org/2000/svg">
    <g clip-path="url(#clipTwitter)">
        <path d="M16 3.038a6.554 6.554 0 01-1.885.517 3.288 3.288 0 001.443-1.816 6.576 6.576 0 01-2.085.796A3.285 3.285 0 007.88 5.528 9.319 9.319 0 011.114 2.1a3.287 3.287 0 001.015 4.383 3.269 3.269 0 01-1.486-.41c-.036 1.52 1.054 2.943 2.633 3.26a3.29 3.29 0 01-1.483.055 3.285 3.285 0 003.067 2.28A6.6 6.6 0 010 13.026 9.292 9.292 0 005.032 14.5c6.095 0 9.538-5.147 9.33-9.764A6.684 6.684 0 0016 3.037z" fill="#A0A0A0" />
    </g>
    <defs>
        <clipPath id="clipTwitter">
            <path fill="#A0A0A0" d="M0 0h16v16H0z" />
        </clipPath>
    </defs>
</svg>