<svg width="24" height="24" viewBox="0 0 24 24" fill="none" xmlns="http://www.w3.org/2000/svg">
<path d="M3 5.75C3 5.33579 3.33579 5 3.75 5C6.41341 5 9.00797 4.05652 11.55 2.15C11.8167 1.95 12.1833 1.95 12.45 2.15C14.992 4.05652 17.5866 5 20.25 5C20.6642 5 21 5.33579 21 5.75V11C21 11.1813 20.9961 11.3609 20.9883 11.5387C20.5804 11.1263 20.0707 10.8148 19.5 10.6449V6.47793C16.9227 6.32585 14.4192 5.38829 12 3.67782C9.58084 5.38829 7.07735 6.32585 4.5 6.47793V11C4.5 15.2556 6.95337 18.3789 12 20.4419C12.3455 20.3007 12.6788 20.1545 13 20.0033V21.5C13 21.5492 13.0014 21.598 13.0042 21.6465C12.7663 21.7496 12.5232 21.85 12.2749 21.9478C12.0982 22.0174 11.9018 22.0174 11.7251 21.9478C5.95756 19.6757 3 16.0012 3 11V5.75Z" fill="#242424"/>
<path d="M18.75 18.8523C19.4804 18.5546 19.9951 17.8374 19.9951 17C19.9951 15.8957 19.0999 15.0005 17.9956 15.0005C16.8913 15.0005 15.996 15.8957 15.996 17C15.996 17.8408 16.515 18.5604 17.25 18.8559L17.25 21.25C17.25 21.6643 17.5858 22 18 22C18.4142 22 18.75 21.6643 18.75 21.25L18.75 18.8523Z" fill="#242424"/>
<path d="M15.5 13.9995C15.5 15.2447 14.5 16.4995 12 16.4995C9.5 16.4995 8.5 15.2494 8.5 13.9995C8.5 13.1711 9.17157 12.4995 10 12.4995H14C14.8284 12.4995 15.5 13.1711 15.5 13.9995Z" fill="#242424"/>
<path d="M14 10C14 11.1046 13.1046 12 12 12C10.8954 12 10 11.1046 10 10C10 8.89543 10.8954 8 12 8C13.1046 8 14 8.89543 14 10Z" fill="#242424"/>
</svg>
