<?xml version="1.0" encoding="utf-8"?>
<svg version="1.1" xmlns="http://www.w3.org/2000/svg" xmlns:xlink="http://www.w3.org/1999/xlink" viewBox="0 0 512 512" xml:space="preserve" style="background: white;">
<g>
	<g>
		<path d="M165.5,424.9c-17.1-13.6-35.4-26.4-47.9-44.7C91.3,348.2,71,311,57.1,271.9c-8.4-25.3-11.2-52.6-22-77
			c-11.3-17.6,1.9-37.1,21.3-42.7c8.6-1.7,23.9-9.8,5.5-4c-16.5,12-18-11-1.2-12.4c11.5-1.5,15.7-11,11.8-19.4
			c-12.3-8.1,30-16.9,8.7-29c-22.2-23.9,31-28.6,17.9-1.4c-3.1,21,37.2-3.8,27.8,20.4c9.5,11.6,35.6,2.6,34.9,18.9
			c13.9,1,18.7,12.6,31.6,13.5c13.6,6.2,37.9,10.9,42.5,26.1c-13.4,10.6-44.4-21.8-45.8,7.5c4,43.3,3,87.9,18.8,129.1
			c7.5,25,25.7,44.7,42.1,64.1c15.7,19.1,36.9,32.4,58.6,43.8c19,8.9,39.6,14.9,60.3,18.6c8.4-6.4,23.2-30.3,36.3-20.2
			c0.6,11.3-26,23.7-1.3,22.4c14.5-4.4,24.6,11.2,36.6-2.9c11,13,45.8-8.4,38,18.4c-10.6,6.8-26.1,2.7-36.8,12.1
			c-17.5-8.7-31.5,7.8-50.9,5.8c-21.5,3.8-43.5,5.4-65.3,5.4c-35.8-2.9-72.4-4-106.6-16.5C201.1,446.7,182.4,435.8,165.5,424.9
			L165.5,424.9z M195.7,438c18.7,8.1,37.1,16.6,57.7,19.3c32.6,4.5,66.3,11.5,99,5.1c-14.8-6.7-30.2,2.6-44.9-4.8
			c-17.7,3.8-36.7-1-54.7-3.3c-20.4-9.1-42.5-15.4-61.7-27.3c-23.9-8.7,12.4,11.2,18.9,12.9c14.9,8.5-16.5-4.4-20.9-7.9
			c-12.5-7-14.1-5.6-1.3,1.5C190.4,435.1,193,436.7,195.7,438L195.7,438z M160,412.8c18.2,6.7-0.1-12.7-8.4-11.6
			c-3.7-6.4-14.1-10.5-6.7-13.8c-13.3,4.5-13.8-17.4-20.1-14.4c-14-4.4-5.4-20-22-29.6c-1.5-10.1-16.6-18.9-21.4-34.2
			c-2.1-7.8-16.9-30.2-7.8-9.4c7.8,20.1,21.5,37.3,32.8,54.6c8.9,16.3,19.3,33.5,35.4,43.6C147.1,403.2,152.3,411.2,160,412.8z
			 M107.7,355.3C108.3,352.6,110.9,361.2,107.7,355.3z M181.8,420.8C185.8,419.1,176,418.6,181.8,420.8z M191.7,424.5
			C190.6,419.5,187.1,427.2,191.7,424.5z M204,429.6C209.9,424,195,426.1,204,429.6z M225.2,441.4
			C228.8,436.1,213.7,439.4,225.2,441.4z M184.6,413.1C193.6,407.1,172.7,413,184.6,413.1z M193.8,417.7
			C193.6,414.5,190.5,419.1,193.8,417.7z M240.1,446.6c7.5,4.7,43.5,10.3,21,1.9C257.3,449.3,219.2,437.7,240.1,446.6z M166.6,389.3
			C165.9,386.2,155,385.8,166.6,389.3z M188.1,401.8C193.8,398,176.5,398.8,188.1,401.8z M206.3,413
			C214.4,410,193.2,409.9,206.3,413z M157.8,379.7c8.7,6.7,35.2,0.9,13.4-4c-10-5.3-32.4-8.9-17.1,3.1L157.8,379.7z M218.5,416.9
			C222.2,410.6,203.3,413.3,218.5,416.9z M200.1,402.1c21.4,6.1-17.9-13.5-5.3-2.2l2.9,1.3L200.1,402.1z M237.1,423.5
			C257.3,423.8,218.8,420.7,237.1,423.5z M150.1,368C149.3,364.3,145.1,368.4,150.1,368z M271.3,442.7
			C271.9,435.9,264.8,447.8,271.3,442.7z M184.6,389.2C183.3,385.6,178.3,389,184.6,389.2z M152,365.7
			C163.5,365,136.1,360.5,152,365.7z M113.3,340.7C111.9,335.1,100.7,330.7,113.3,340.7z M214.7,405.1
			C212.6,402.6,213.7,405.6,214.7,405.1z M277.8,443.8C277.6,440.1,274.4,445.2,277.8,443.8z M209.2,399.4
			C210.3,394.5,199.2,397.9,209.2,399.4z M162.1,369.5C170.7,368.6,148.3,363.7,162.1,369.5z M241.7,418.9
			C255.1,413.6,228.5,416.3,241.7,418.9z M200.3,390.9c15.5,2-18.5-10.5-3.4-1.1L200.3,390.9z M254.2,424
			c14.5-8.7,9.7,20.3,24.6,2.4c14.7-10.7-12.7,13.3,5.4,1.9c13-8.7,32.4,4.2,44.5,8.4c8.8-0.4,17.4,7.6,26.3,2.7
			c17.4-4.7-33.8-6.9-20.4-15.2c-15.8,4.6-27.5-5.5-35.3-15.7c-17.8-4.1-38.3-13.2-47.2-28.9c-3.7-5.9,5.2,0.9-3.1-8.8
			c-10.7-9.5-16-20.4-23.2-31.9c-8.6-4.5-9.6-18-10.5-0.4c0.1-11.1-10.4-18.6-12.9-15.5c-0.1-10.7,11.1-5.3,3.3-13.3
			c-1.7-11.1-7.3-22.7-8.9-35.2c-2.6-6-0.4-18.9-8.9-5.3c-3.1,14.4-1-17.7,3.8-7.1c6.3-10.8-2.3-9.6-2.6-8.1
			c4.1-9.2,2.6-22.1-1.1-17.2c2.2-9.7,3.5-35.7-3.3-31c4.1-10.1,7.8-46.4-10-32.5c-7.3,0.1-19.7,2.6-25.6,5.6
			c18.5,10.2-1.9,3.7-9.4,2.1c-1,9.4-8.4,5.3-17.7,5.4c14.9,1.8-7.3,15.2-15.8,10c-11.1,5.3,9.6,18.5,0.2,22.6
			c1.2,6.2-16.9-2.2-15.5,12c-10.8-4.5-1.5,16.9,3.9,9.7c18.3,4.9,12.9,16.2,13.3,27c-2.9,6.2-14.7-14.7-2.6-13.8
			c-9.5-15.5-10.5-5.6-18.5,1.6c-1.8,0.5,20.3,10.3,6.4,15.1c12.2,1.8,12.5,12.5,14.9,19.3c7.3,7.7,5.9-8.4,14.7,0.8
			c-5.6-8.2-29.4-23.1-10.3-18.3c-0.1-8.2-3.4-14.9,2.4-14.7c5.9-10.5-6.1,26,7,12.6c3.7-1.6,4.5-10.5,11.1,0.8
			c9.4,9.4,3.4,16.1-10,7.5c2.3,8.1,17.9,11.1,14.9,23.7c3.1,11.2,7.4,7,11.2,6.4c2.9,10.8,4.6,2.9,4.8-2.3
			c13.6,2.9,10.3,10.9,14.6,16.6c9.3,4.2-13.3-28.6,2.7-9.9c16.8,15.2,6.3,21.5-8.9,19.1c9.6-0.7,12.7,13,24.6,12.4
			c10.9,5.2,18.3,25.1-0.5,16.8c-6.5-5.9-29.6-13.2-10.7-2c17.4,8.1,31.2,12.9,48,23c11.9,8.6,17.2,18.5,21.8,20.4
			c-10.1,4.8-30.5-3.9-15.4-6.5c-9.4-1.7-20-6.4-11,5.3c7.7,6.4,27.2,5.7,30.7,6.4c-3,6.5-8.1,7,0.1,7.5
			C241.4,420.5,253.5,421.2,254.2,424L254.2,424z M235.6,371.4c-5.6-5.9-7-16.7-1-7.3C237.7,365.4,244.5,381.9,235.6,371.4z
			 M296.3,409.9C299.8,409.8,296.4,412.5,296.3,409.9z M226.8,357.1C226.6,348.4,228.8,363.9,226.8,357.1z M220.7,349
			C213.8,335.6,229.6,352.9,220.7,349z M147.7,298.5C151.8,297.4,149.6,305.5,147.7,298.5z M205.9,330.1
			C208.4,320.6,208.8,338.1,205.9,330.1z M164.7,301.5C161.9,296.3,170.8,306.4,164.7,301.5z M200,312.8c-6.6-14.8,4.7-8.1,1.5,2.5
			L200,312.8z M139.2,272.2c-2.9-4.8-7.8-19.1-6.2-23.4c1.4,7,15,30.5,6.7,9.7c-9.2-17.4,11.1,5.6,13.2,10c1,4.3-5.7-1.2-1.3,8.9
			C143.3,265.8,146.7,283.8,139.2,272.2z M120.3,259.2C121.1,248,124.6,267,120.3,259.2z M128.8,262.2
			C132.8,253.6,135.6,274.1,128.8,262.2z M108.5,246.4c-7-7-12.1-13.4,0.3-4.3c4.8,0.1-10.5-14.6,1.2-4.7
			C122.3,239.7,116,257.7,108.5,246.4L108.5,246.4z M119.2,246.1C123.3,242.1,121.3,250.1,119.2,246.1z M125.8,248.3
			C119.6,236.7,133.2,253.1,125.8,248.3z M112.6,235.8c-20.4-18.1,25.6,9.5,3.3,3.4L112.6,235.8z M171,269.7
			c-8.9-5.3-2.3-37.2,0.7-15.4c8.6-2.8-0.5,11.3,5.9,11.1C176.6,274.3,173.7,277.5,171,269.7z M192.5,282.4
			C193.4,272.8,194.4,289,192.5,282.4z M188.8,278.7C189.8,274.6,188.9,283.5,188.8,278.7z M116.7,229.8c-13.1-18.1,38,18.2,8.4,4.5
			C121.9,233.6,118.2,233.3,116.7,229.8z M158.2,251.9C156.9,236.6,161,254.3,158.2,251.9z M189.8,272.1
			C192.2,263.4,189.9,277.8,189.8,272.1z M118.6,222.9c7.8-1.7,32.2,13.6,9.7,4.4C125.9,224.5,120.6,225.8,118.6,222.9z
			 M185.4,256.2c0.9-15.5,4.7-9.3,0.1,2.2L185.4,256.2z M124.4,217.5c3.1-4.6-8.4-21,1.7-5.9c4.3,3.4,12.6,5.8,5.3,7.3
			C142.9,229,128.6,221.6,124.4,217.5z M182.1,251.3C184.3,233.6,184.1,261.7,182.1,251.3z M117.8,201.2
			C120.3,200.1,119.1,204.4,117.8,201.2z M132.9,210.1C136.7,202,140,219.2,132.9,210.1z M175.3,233.8
			C175.3,230.6,176.1,238.2,175.3,233.8z M172.8,228.3C167,213.8,178.3,236,172.8,228.3z M169.2,218.8
			C168.2,212.7,172.6,226.3,169.2,218.8z M175.1,209.2c-4-7.1,5.1-31.3,6.1-16.3c-4.2,11.7-1.2,18.3,1.8,2.6
			C188.4,183,181.8,219.9,175.1,209.2z M181.1,173.1C182.9,170.9,181.6,175.7,181.1,173.1z M171.1,372.1
			C168.7,370,171.4,373.4,171.1,372.1z M191.9,382.6c11.5,3,11.5-1.8,1-3.1c-5.6-5.3-23.4-10.8-7.5-0.7
			C186.5,381.4,189.8,381.3,191.9,382.6L191.9,382.6z M150.8,355.3c6.4,4.8,23.9,13.5,9,1.8c5-5.8-9.6-8.9-4.8-12.8
			c-12.3-7.6-9.7-6.9-1-6.7c-14.9-6.7,2.1-6.2,1.3-9.6c-5.8-1.1-28.5-10.1-15.1,0.7c-13.6-6.9-3.3,2.6-7.4,1.6
			c-13.9-3.8,12.4,10.6-2.2,7c8,6.3,21.5,16.2,3.4,6.7C131.6,347.5,147,352.7,150.8,355.3L150.8,355.3z M172.6,367.9
			C199,376.4,159.6,357.4,172.6,367.9z M283.9,435.3C284.2,430,280.3,439.8,283.9,435.3z M295.4,440.1c6.1-5.9,0.2,9.4,10.1-1.5
			c0.1-7.8-0.3-12.4-11.3-2.9C291,437.4,289.7,444.6,295.4,440.1L295.4,440.1z M113.6,326C111.8,318.6,100.5,318.6,113.6,326z
			 M125.8,334C121.3,326.5,109.6,327.2,125.8,334z M195.4,376c6.8,6,31.2,4.4,8.3,0.7C200.2,371.7,182.1,372.9,195.4,376z M291,435
			C301.5,426.2,280.9,438.9,291,435z M312.7,449.9C312.8,447.1,308.2,451.1,312.7,449.9z M312.7,446
			C324.3,433.7,301.5,446.7,312.7,446z M83.6,300.9c-9.9-14.1-6.2-20.4-15.7-31.9c-1.8-8.9-16.3-28.8-7.5-7.6
			C68.5,273.7,70.9,292.8,83.6,300.9L83.6,300.9z M309.1,442C330.4,428.3,300.4,436.1,309.1,442z M325.4,448.4
			C336.1,439.3,318.7,446.5,325.4,448.4z M110,310.4C113.1,305.9,102.2,309.9,110,310.4z M322,444.1c10.3-6.7-2.3-5.6-1.8,0.6
			L322,444.1z M181.9,355.8C181.6,351.3,176.4,356.1,181.9,355.8z M190.6,360.8C187.8,355.2,186.3,361.6,190.6,360.8z M338.6,448.6
			c13.2-9.6-8.1-1.9-2.8,1.8L338.6,448.6z M333.5,446.2C344.3,437.1,322.1,450.2,333.5,446.2z M359.4,463.4
			C366.6,458.5,350.6,461.8,359.4,463.4z M116.7,307.2c9.7,2.2,38.7,23.9,21.6,1.5c-8.8-2.6-3.5-24.1-12.5-20.3c6,10,5,14.4-7.6,8
			c-15.9-7.7-8.9,3.9-5.9,7C108.1,304.4,117.9,307.1,116.7,307.2L116.7,307.2z M72.5,272.3c1.7-7.2-16-39.5-8.4-16.2
			C66.9,260.9,66.6,270.2,72.5,272.3z M153.5,322.3C148.5,318.1,153.3,321.7,153.5,322.3z M165.8,325.2
			C165.8,317.5,152.3,322.1,165.8,325.2z M272.4,392.3C270.3,387.1,264.3,392.2,272.4,392.3z M277.5,396.1
			C276.8,393.1,274.6,396.6,277.5,396.1z M319.7,422.6C323.8,419.6,314.7,422.3,319.7,422.6z M94.6,277.9
			C106.2,273.4,82.1,274.7,94.6,277.9z M263,384C262.9,376.5,255.6,385.9,263,384z M89.9,267.2C97.4,264.7,83.1,265.5,89.9,267.2z
			 M111.6,277.7C111.5,275.2,109.3,278.7,111.6,277.7z M375.8,439.7c9.6-1.9,31.5,4.9,35-2.6c-11.6-0.2-40.4-8.2-41.7,1.9l2.6,0.4
			L375.8,439.7z M118.5,279.5C118.6,271.8,112.6,279.2,118.5,279.5z M61.5,239.9C59,225.4,51.7,237.7,61.5,239.9z M75.1,243.4
			C75.3,238.7,62.7,239.1,75.1,243.4z M82.9,247.2C80.6,245.3,81.2,249.4,82.9,247.2z M131.7,278.4
			C134,276.4,126.3,276.9,131.7,278.4z M77.7,238.6C76.4,227.6,62,236.9,77.7,238.6z M49.9,220.5C49.5,215.5,47.2,222.4,49.9,220.5z
			 M54,217.4C53.3,211.4,50.5,218.1,54,217.4z M76.9,231.1c9.7-3.8-17.6-7.9-2-0.7L76.9,231.1z M383.1,420.2
			C389.3,414.5,375.3,418.4,383.1,420.2z M420.2,439.3C422.6,432,413.9,440.3,420.2,439.3z M79.2,219
			C80.3,211.9,71.5,220.4,79.2,219z M46.7,197.2c-1.8-10-1.5-27.6,15.2-21.7c-22.3,4.5,15.5,27.8,10.7,9.4
			c9.4,0.4,18.4-5.6,13.4,3.6c18.5-2.1,31.3-18.1,49.2-15.9c13.9-1.8,29.1-3.2,44.2-8.8c12.3-1,24.2-14.2,17.4-22
			c-16.8-1.5-34.4,0.7-53,4.3c-20.6,4.3-39.3,12.4-60.1,16c-20.3,2.7,4,7.5-1.8,8.6c-10.5,3.7,12.6,6.2-1.4,10
			C72,179,63,176,66.6,166.9c-19.4,2.5-36.5,10.6-21.1,30.3L46.7,197.2z M93.5,173.4c4.5-16.8,24.4,13.8,7.5,2.2
			C98.9,174.1,95.6,172.9,93.5,173.4z M94.3,165.3C100.9,160.5,97.8,168,94.3,165.3z M102.7,165.4c0.6-7.7,19,4.1,3,2.8L102.7,165.4
			z M114,160.8C118.2,156,115.3,165.2,114,160.8z M117,158.9c7-8.4,39.3-5.3,15.6-0.8C126.3,153.4,121.4,160.9,117,158.9z
			 M159.2,152.4C158.1,129.6,180.2,160.5,159.2,152.4z M171.2,152.3c4.4-11.5,17-4.6,2.1-2.3C173.5,151.2,172.8,155.9,171.2,152.3z
			 M74.5,213.2C87.6,205.1,60.7,206.2,74.5,213.2z M84.1,215.9C88.8,211,74.2,213.8,84.1,215.9z M55.7,195.6
			C63.1,189.9,46.9,193.4,55.7,195.6z M442,437.3C442.2,430.6,436.3,440.3,442,437.3z M402.7,410.5
			C403.8,402.8,397.7,411.2,402.7,410.5z M452.8,439.9c10.5,0,31.6-3.2,8.9-3.2C458.1,437.2,440.9,437.1,452.8,439.9z M92.6,211.1
			c8.5-0.6,13.3-9.3-1.6-8.8c-23.1-2.4,20.3,7.8-2.9,4.9C85,209.3,92.5,211.7,92.6,211.1z M100.1,214.9
			C99.2,209.4,97.5,217.8,100.1,214.9z M108.9,191.4C112.7,186.8,103.9,190.1,108.9,191.4z M80.8,144.4c15.2-5.1,35.8-10.9,42.9,2.5
			c-7.3-8.7-2.9-17.3,4-4.5c9.7,13,14.5-5.9,8.2-10.2c7.2,8.9,15.3,13.1,4.8,0.5c11.4-13.7-22.9,1.8-30.8,1.7
			C106.2,136,71.1,143.2,80.8,144.4L80.8,144.4z M89.6,127.4c8.6-6.5,29.8,3.8,16.2-6.5C104.6,119.8,76.1,128.7,89.6,127.4z
			 M121.1,128.7c10.1,0.3-4.3-13.5,7.7-7.3c-2-6.4-14-7.7-19.9-10.3C105.5,117.1,115.6,128.7,121.1,128.7z M95.2,100.2
			C98.7,95.5,89.1,102.6,95.2,100.2z M108,103.3c16.2-2.1-4.2-7-3.3-0.1L108,103.3z M84.1,84.5c-11.4-14.9,21.5,2.6,9.9-13.1
			C84.1,63.6,74.8,80.2,84.1,84.5z M230.8,163.5c5.3-9.3-21.7-12.5-3.5-3.3C228.9,160.8,228.5,164.2,230.8,163.5z"/>
	</g>
</g>
</svg>
