<svg width="133" height="48" viewBox="0 0 133 48" fill="none" xmlns="http://www.w3.org/2000/svg">
<path d="M67.9682 32.62C67.7323 31.9387 67.4881 31.2655 67.2354 30.6005C66.9827 29.9355 66.7385 29.2539 66.5028 28.5559H59.1239C58.888 29.2539 58.6479 29.9396 58.4036 30.6127C58.1593 31.2859 57.9193 31.955 57.6836 32.62H54.3809C55.0353 30.7754 55.6565 29.0719 56.2445 27.5093C56.8325 25.9468 57.4077 24.4671 57.9701 23.0703C58.5323 21.674 59.0905 20.344 59.6448 19.0804C60.199 17.8168 60.7701 16.57 61.358 15.3403H64.3897C64.9777 16.5709 65.5491 17.8176 66.1038 19.0804C66.6585 20.3432 67.2172 21.6731 67.7799 23.0701C68.3431 24.4662 68.9231 25.9457 69.5199 27.5087C70.1167 29.0717 70.7427 30.7752 71.398 32.6194L67.9682 32.62ZM62.8131 18.6817C62.4264 19.563 61.9852 20.6352 61.4896 21.8984C60.994 23.1616 60.4773 24.533 59.9396 26.0125H65.6864C65.1484 24.5332 64.6275 23.1535 64.1236 21.8734C63.6198 20.5933 63.1829 19.5294 62.813 18.6817" fill="white"/>
<path d="M77.144 30.1114C77.9503 30.1114 78.5385 30.0158 78.9085 29.8246C79.2785 29.6334 79.4633 29.3052 79.4629 28.8399C79.4626 28.6265 79.4083 28.4166 79.3048 28.2293C79.2014 28.042 79.0521 27.8832 78.8706 27.7675C78.4755 27.485 77.8242 27.1775 76.9165 26.8448C76.397 26.6602 75.8879 26.448 75.3916 26.2092C74.9575 26.0035 74.5546 25.7392 74.1944 25.4239C73.8556 25.1213 73.585 24.7518 73.4003 24.3392C73.1934 23.8458 73.0946 23.3147 73.1103 22.7809C73.1103 21.5838 73.5557 20.6404 74.4464 19.9508C75.3372 19.2611 76.5471 18.9162 78.076 18.9159C78.8207 18.9133 79.5637 18.9843 80.2941 19.1277C80.8332 19.2249 81.3641 19.3624 81.8822 19.5391L81.3278 21.983C80.9128 21.8076 80.4824 21.6699 80.0421 21.5714C79.4468 21.4388 78.8377 21.3759 78.2274 21.3842C77.6054 21.3842 77.1014 21.4881 76.7153 21.6959C76.5347 21.7832 76.3838 21.9204 76.2808 22.0908C76.1779 22.2613 76.1273 22.4576 76.1353 22.656C76.1313 22.853 76.17 23.0485 76.2487 23.2296C76.3382 23.4129 76.4725 23.5714 76.6393 23.6908C76.8669 23.8574 77.1119 23.9994 77.3702 24.1145C77.7318 24.2793 78.102 24.425 78.4793 24.5509C79.1078 24.7767 79.7223 25.039 80.3195 25.3364C80.7783 25.5623 81.1992 25.8566 81.5672 26.2091C81.8872 26.5216 82.1325 26.9007 82.2853 27.3188C82.447 27.801 82.5237 28.307 82.512 28.8149C82.512 30.0618 82.0457 31.0051 81.1131 31.645C80.1805 32.2848 78.849 32.6048 77.1184 32.6047C75.9584 32.6047 75.026 32.5091 74.3211 32.3179C73.8173 32.1909 73.3209 32.0369 72.834 31.8568L73.3634 29.3383C73.8937 29.5463 74.4367 29.7212 74.9892 29.862C75.6935 30.0369 76.4178 30.1207 77.144 30.1112" fill="white"/>
<path d="M84.7536 25.8215C84.7327 24.7927 84.9081 23.7693 85.2704 22.8045C85.5756 22.001 86.0429 21.267 86.6439 20.6471C87.2001 20.0837 87.8699 19.642 88.6101 19.3507C89.3311 19.0631 90.1011 18.9148 90.8786 18.9138C92.6936 18.9138 94.1094 19.4706 95.126 20.5842C96.1427 21.6978 96.6509 23.3606 96.6506 25.5723C96.6506 25.7388 96.6464 25.9258 96.638 26.1335C96.6296 26.3411 96.617 26.5281 96.6002 26.6946H87.9043C87.9882 27.7417 88.3621 28.5521 89.026 29.1258C89.6899 29.6994 90.6519 29.9863 91.9122 29.9863C92.5938 29.9923 93.2741 29.9255 93.9412 29.787C94.4363 29.6894 94.9213 29.5476 95.3904 29.3633L95.7939 31.8315C95.57 31.9362 95.3382 32.0237 95.1007 32.0932C94.7694 32.1942 94.4329 32.2774 94.0926 32.3426C93.7144 32.4174 93.3069 32.4798 92.8701 32.5297C92.4266 32.58 91.9805 32.6051 91.5341 32.6047C90.3747 32.6047 89.3664 32.4343 88.5093 32.0934C87.7023 31.7866 86.9777 31.3003 86.392 30.6722C85.8299 30.0528 85.4087 29.3216 85.1568 28.5279C84.8799 27.6525 84.7437 26.7395 84.7534 25.8224L84.7536 25.8215ZM93.6005 24.476C93.6025 24.0747 93.543 23.6755 93.4242 23.2917C93.3171 22.9376 93.1416 22.6073 92.9074 22.3191C92.6815 22.0454 92.3975 21.824 92.0756 21.6703C91.7083 21.5042 91.3074 21.4231 90.9035 21.4333C90.4767 21.4239 90.0536 21.5136 89.6683 21.6951C89.3261 21.8616 89.0217 22.095 88.7736 22.3811C88.5268 22.6688 88.3346 22.9982 88.2064 23.3534C88.0726 23.7163 87.9795 24.0926 87.929 24.4756L93.6005 24.476Z" fill="white"/>
<path d="M107.519 22.3055C107.176 22.1993 106.826 22.1119 106.473 22.0435C105.962 21.9463 105.443 21.9005 104.923 21.9066C104.564 21.9089 104.206 21.9422 103.852 22.0061C103.584 22.0479 103.319 22.1062 103.058 22.1807V32.6282H100.008V20.2109C100.728 19.958 101.465 19.7538 102.213 19.6C103.179 19.4007 104.163 19.3046 105.15 19.3135C105.352 19.3135 105.587 19.3259 105.855 19.3509C106.124 19.3758 106.393 19.409 106.662 19.4507C106.931 19.4923 107.191 19.5421 107.444 19.6003C107.696 19.6584 107.897 19.7125 108.048 19.7625L107.519 22.3055Z" fill="white"/>
<path d="M110.139 15.8393L113.189 15.3407V19.2803H117.877V21.7987H113.189V27.1101C113.189 28.1572 113.357 28.9052 113.693 29.3542C114.029 29.8031 114.6 30.0276 115.407 30.0275C115.904 30.0345 116.4 29.9758 116.882 29.853C117.228 29.7633 117.569 29.655 117.903 29.5287L118.407 31.9225C117.955 32.1053 117.492 32.2594 117.021 32.3837C116.362 32.5522 115.684 32.6319 115.004 32.6207C114.063 32.6207 113.277 32.496 112.647 32.2465C112.057 32.0263 111.538 31.6514 111.148 31.162C110.761 30.6524 110.495 30.0645 110.366 29.4408C110.206 28.6824 110.13 27.9091 110.139 27.1344L110.139 15.8393Z" fill="white"/>
<path d="M132.57 25.7473C132.582 26.7052 132.428 27.658 132.116 28.5649C131.841 29.3666 131.404 30.1047 130.831 30.7342C130.272 31.336 129.588 31.8123 128.827 32.1306C128.009 32.4699 127.13 32.6396 126.243 32.6292C125.361 32.6406 124.485 32.4708 123.672 32.1306C122.916 31.8099 122.237 31.3339 121.681 30.7342C121.107 30.1034 120.666 29.3659 120.383 28.5649C120.062 27.6598 119.905 26.7062 119.917 25.7473C119.904 24.7924 120.062 23.8428 120.383 22.9421C120.669 22.1436 121.115 21.4101 121.694 20.7853C122.254 20.1885 122.938 19.7166 123.698 19.4012C124.504 19.0706 125.37 18.9052 126.244 18.915C127.121 18.9061 127.991 19.0715 128.802 19.4012C129.564 19.7125 130.248 20.1849 130.806 20.7853C131.378 21.413 131.819 22.1459 132.104 22.9421C132.425 23.8428 132.583 24.7924 132.571 25.7473H132.57ZM129.445 25.7473C129.445 24.4508 129.164 23.4244 128.601 22.668C128.038 21.9117 127.252 21.5335 126.244 21.5335C125.236 21.5335 124.45 21.9117 123.887 22.668C123.324 23.4244 123.042 24.4508 123.042 25.7473C123.042 27.061 123.324 28.0999 123.887 28.8642C124.45 29.6285 125.235 30.0108 126.243 30.0112C127.252 30.0112 128.037 29.6289 128.6 28.8642C129.164 28.0995 129.445 27.0605 129.445 25.7473" fill="white"/>
<path d="M24.3048 48C22.8069 48 21.3122 47.8648 19.8393 47.5959C18.4129 47.3342 17.0133 46.9461 15.6574 46.4363L29.166 20.2801L40.3824 41.9992C39.3083 42.9351 38.1531 43.776 36.93 44.5123C35.6956 45.2543 34.3965 45.886 33.0482 46.3998C31.6769 46.9221 30.2601 47.3197 28.8156 47.5877C27.3281 47.8624 25.8181 48.0004 24.3048 48V48ZM43.7202 38.4399L24.3048 1.04162e-06C25.95 -0.000475753 27.591 0.162736 29.2031 0.487161C30.7668 0.803537 32.2949 1.27209 33.7651 1.88597C35.2104 2.49023 36.5931 3.23136 37.8936 4.09895C39.1844 4.96062 40.389 5.94188 41.491 7.0294C42.5922 8.11786 43.586 9.30732 44.459 10.5817C45.3374 11.8661 46.0879 13.2314 46.7 14.6585C47.3216 16.1104 47.796 17.6195 48.1161 19.1638C48.4447 20.7554 48.61 22.3757 48.6096 24C48.6124 26.6345 48.1754 29.2514 47.316 31.7455C46.4852 34.1512 45.2714 36.4107 43.7202 38.439V38.4399ZM4.88948 38.4399C3.3382 36.4117 2.12443 34.1523 1.2939 31.7466C0.434286 29.2522 -0.0028743 26.6349 1.4221e-05 24C-0.000320631 22.372 0.165684 20.7481 0.495502 19.1529C0.816028 17.6124 1.28969 16.1067 1.9096 14.658C2.52174 13.2308 3.27235 11.8655 4.15095 10.5812C5.02387 9.30672 6.01777 8.11726 7.11917 7.02894C8.22113 5.94153 9.42557 4.96034 10.7161 4.09868C12.0166 3.23081 13.3992 2.48933 14.8444 1.88462C16.3148 1.27117 17.8431 0.802972 19.407 0.486895C21.0189 0.162671 22.6598 -0.000454857 24.3048 1.04162e-06L4.88948 38.4399Z" fill="url(#paint0_linear)"/>
<defs>
<linearGradient id="paint0_linear" x1="24.3048" y1="0" x2="24.3048" y2="48" gradientUnits="userSpaceOnUse">
<stop stop-color="#70D0D3"/>
<stop offset="1" stop-color="#048A8F"/>
</linearGradient>
</defs>
</svg>
